<svg width="100" height="100" viewBox="0 0 100 100" fill="none"
  xmlns="http://www.w3.org/2000/svg">
  <path d="M39.52 59.6H37.52L39.52 45.34H36.24L36.48 43.44H45.06L44.8 45.34H41.52L39.52 59.6ZM48.5592 59.6H46.5592L47.5592 52.66L45.5792 43.44H47.6192L48.6592 49.54C48.6859 49.6467 48.7126 49.78 48.7392 49.94C48.7659 50.1 48.7926 50.2733 48.8192 50.46C48.9259 50.18 49.0459 49.88 49.1792 49.56L51.5792 43.44H53.7392L49.5392 52.66L48.5592 59.6ZM54.5833 59.6H52.5833L54.8433 43.44H57.9833C59.6099 43.44 60.8033 43.8533 61.5633 44.68C62.3233 45.4933 62.6033 46.66 62.4033 48.18C62.2833 49.1133 61.9699 49.9133 61.4633 50.58C60.9566 51.2333 60.2966 51.74 59.4833 52.1C58.6833 52.4467 57.7766 52.6267 56.7633 52.64H55.5633L54.5833 59.6ZM57.9033 45.32H56.5833L55.8233 50.76L56.7633 50.74C57.8699 50.7133 58.6966 50.4667 59.2433 50C59.8033 49.52 60.1433 48.8267 60.2633 47.92C60.3699 47.08 60.2166 46.44 59.8033 46C59.4033 45.5467 58.7699 45.32 57.9033 45.32ZM62.3294 59.6L64.5894 43.44H71.6894L71.4494 45.36H66.3894L65.7094 50.22H70.0294L69.7894 52.14H65.4294L64.6494 57.68H69.8894L69.6494 59.6H62.3294Z" fill="#0061AB"/>
  <path d="M78.18 82.7L77.92 84.6H71.22L73.48 68.44H75.48L73.48 82.7H78.18ZM82.2786 84.8C80.9853 84.8 80.0986 84.2933 79.6186 83.28C79.1386 82.2533 79.0386 80.6667 79.3186 78.52C79.5986 76.3467 80.1053 74.7533 80.8386 73.74C81.5853 72.7133 82.5919 72.2 83.8586 72.2C85.1653 72.2 86.0586 72.7133 86.5386 73.74C87.0186 74.7533 87.1186 76.3467 86.8386 78.52C86.5586 80.6667 86.0453 82.2533 85.2986 83.28C84.5653 84.2933 83.5586 84.8 82.2786 84.8ZM82.4186 83C83.0319 83 83.5319 82.64 83.9186 81.92C84.3186 81.1867 84.6253 80.0533 84.8386 78.52C85.0653 76.9733 85.0853 75.8333 84.8986 75.1C84.7119 74.3667 84.3119 74 83.6986 74C83.1119 74 82.6253 74.3667 82.2386 75.1C81.8519 75.8333 81.5453 76.9733 81.3186 78.52C81.1053 80.0533 81.0853 81.1867 81.2586 81.92C81.4319 82.64 81.8186 83 82.4186 83Z" fill="#F5C1BE"/>
  <rect x="34" y="59" width="65" height="10" rx="5" fill="#5B5B5B"/>
  <path d="M95 0H5C2 0 0 2 0 5V95C0 98 2 100 5 100H95C98 100 100 98 100 95V5C100 2 98 0 95 0ZM90 90H10V10H90V90Z" fill="#5B5B5B"/>
</svg>
